<?xml version="1.0" standalone="no"?>
<!DOCTYPE svg PUBLIC "-//W3C//DTD SVG 20010904//EN"
 "http://www.w3.org/TR/2001/REC-SVG-20010904/DTD/svg10.dtd">
<svg version="1.0" xmlns="http://www.w3.org/2000/svg"
 width="1024.000000pt" height="1024.000000pt" viewBox="0 0 1024.000000 1024.000000"
 preserveAspectRatio="xMidYMid meet">

<g transform="translate(0.000000,1024.000000) scale(0.100000,-0.100000)"
fill="#000000" stroke="none">
<path d="M5035 9165 c-143 -27 -251 -82 -334 -171 -99 -105 -140 -224 -141
-400 0 -61 -5 -104 -16 -130 -20 -48 -20 -164 -1 -220 8 -22 31 -72 51 -110
59 -113 71 -176 70 -364 0 -119 -5 -189 -18 -250 -19 -92 -51 -216 -69 -267
l-11 -33 -150 79 c-83 43 -261 136 -396 206 -251 130 -300 163 -300 201 0 30
35 71 80 94 56 29 258 88 327 95 50 6 66 4 101 -14 50 -25 82 -26 129 -4 98
46 97 190 -1 237 -48 23 -107 14 -149 -23 -25 -22 -54 -32 -127 -46 -268 -50
-462 -146 -506 -251 -18 -43 -18 -115 0 -158 36 -86 108 -135 451 -311 330
-169 494 -256 500 -265 6 -9 -26 -100 -36 -100 -3 0 -82 29 -175 64 -228 85
-285 99 -419 100 -130 0 -192 -13 -301 -65 -142 -67 -286 -224 -385 -419 -18
-36 -54 -121 -79 -189 l-45 -125 -65 -16 c-36 -9 -75 -20 -87 -24 -21 -7 -23
-4 -23 27 0 60 40 260 71 351 64 191 183 357 348 485 71 55 241 138 314 153
31 7 57 15 57 20 0 27 -224 48 -322 28 -216 -42 -398 -191 -526 -430 -71 -133
-133 -338 -147 -490 -14 -155 -9 -142 -86 -195 -38 -26 -104 -84 -145 -129
-74 -79 -76 -80 -70 -46 3 19 11 71 17 115 62 450 273 925 585 1315 126 157
362 387 529 516 176 137 547 328 763 393 l72 22 0 47 c0 26 3 84 7 130 6 76 5
82 -13 82 -10 0 -85 -23 -167 -50 -1046 -351 -1862 -1325 -2031 -2425 -70
-459 -34 -951 101 -1353 84 -252 193 -477 340 -702 358 -547 813 -913 1443
-1163 229 -91 390 -135 675 -184 130 -22 651 -25 790 -4 455 68 847 204 1209
421 496 295 899 732 1151 1244 122 249 185 431 239 691 45 219 51 294 51 600
-1 250 -4 308 -23 424 -97 590 -340 1110 -732 1565 -311 361 -709 647 -1159
831 -91 37 -298 105 -321 105 -13 0 1 -243 14 -256 6 -6 53 -25 104 -43 566
-194 1073 -601 1434 -1151 195 -298 339 -678 394 -1040 22 -152 25 -150 -63
-62 -43 43 -105 96 -138 118 l-60 40 -12 108 c-16 142 -28 202 -65 316 -130
401 -411 650 -733 650 -71 0 -187 -19 -201 -33 -3 -3 37 -19 89 -36 233 -78
451 -259 557 -462 78 -150 114 -278 129 -451 8 -101 14 -97 -94 -69 l-69 18
-37 104 c-111 317 -264 525 -460 624 -101 52 -177 69 -299 69 -141 0 -195 -13
-425 -99 -95 -36 -177 -65 -182 -65 -4 0 -16 21 -25 47 -14 38 -15 51 -5 60 7
6 131 73 277 148 528 273 561 292 616 349 56 59 80 123 69 180 -10 48 -50 110
-90 140 -80 61 -291 138 -455 166 -52 9 -83 20 -100 36 -81 75 -204 36 -224
-71 -10 -51 23 -118 68 -139 48 -22 82 -20 132 9 l43 25 88 -19 c124 -28 290
-86 328 -116 65 -49 54 -110 -27 -152 -24 -13 -173 -91 -333 -174 -460 -240
-426 -224 -440 -206 -16 22 -60 189 -81 307 -24 132 -24 332 0 435 10 44 37
116 59 160 66 133 83 233 52 320 -8 22 -15 67 -15 100 -1 93 -18 205 -40 266
-29 76 -113 185 -180 231 -70 48 -165 86 -258 104 -88 17 -144 17 -237 -1z
m244 -230 c120 -32 213 -118 246 -227 24 -82 38 -217 32 -313 -7 -100 -87
-406 -128 -491 -31 -62 -89 -120 -148 -147 -64 -30 -187 -30 -252 -1 -54 25
-108 77 -143 136 -33 58 -124 363 -138 461 -12 95 3 264 32 361 35 112 138
201 260 225 71 14 180 12 239 -4z m-357 -1369 c159 -87 295 -87 457 -1 36 19
66 33 68 32 1 -2 12 -52 23 -113 12 -60 37 -162 57 -227 20 -64 34 -119 32
-121 -2 -2 -63 -33 -134 -69 -142 -72 -203 -118 -246 -184 l-27 -44 -22 35
c-38 62 -115 121 -250 190 -115 60 -131 71 -127 90 2 11 17 62 31 111 32 106
66 265 66 306 0 16 2 29 5 29 2 0 33 -15 67 -34z m-104 -648 c127 -64 200
-126 232 -200 21 -47 24 -73 28 -230 l4 -178 -50 0 c-55 0 -69 -10 -78 -57 -9
-45 22 -73 81 -73 l45 0 0 -50 c0 -41 5 -56 25 -75 13 -14 33 -25 45 -25 12 0
32 11 45 25 20 19 25 34 25 75 l0 50 55 0 c59 0 75 14 75 64 0 41 -33 66 -87
66 l-46 0 6 173 c9 265 38 316 239 425 63 34 122 62 131 62 18 0 35 -47 21
-60 -5 -4 -27 -13 -49 -20 -54 -17 -111 -54 -163 -104 -37 -34 -72 -83 -72
-99 0 -2 30 4 68 15 37 11 150 39 252 63 102 24 264 71 361 104 200 69 294 85
417 69 140 -17 296 -111 404 -242 48 -58 155 -242 147 -251 -2 -1 -69 38 -149
87 -162 100 -301 173 -369 194 -65 19 -170 28 -246 19 -37 -4 -64 -9 -61 -12
3 -3 38 -20 79 -37 129 -57 257 -148 405 -289 l64 -60 -23 -81 c-22 -80 -76
-219 -125 -325 -142 -306 -455 -500 -805 -501 -265 0 -458 89 -522 243 l-20
47 -59 0 c-47 0 -60 -3 -64 -17 -3 -10 -17 -42 -31 -71 -95 -194 -529 -264
-843 -136 -169 68 -325 202 -416 357 -55 93 -140 297 -173 414 l-19 72 90 86
c145 138 276 229 393 270 28 10 54 22 59 26 4 4 -32 10 -80 14 -130 11 -217
-5 -338 -63 -91 -44 -334 -191 -379 -230 -33 -29 -30 -3 8 70 78 151 164 249
285 327 114 74 156 85 315 86 l140 0 205 -67 c113 -37 302 -92 420 -122 118
-30 226 -58 238 -62 24 -7 24 -6 9 22 -34 66 -163 166 -249 194 -21 6 -38 18
-38 25 0 22 11 45 22 45 5 0 57 -24 116 -52z m-1383 -760 c13 -175 -29 -410
-99 -564 -34 -73 -103 -170 -169 -235 -55 -54 -173 -139 -194 -139 -7 0 3 25
23 59 39 65 97 221 120 320 9 35 15 110 16 165 0 100 -18 226 -32 226 -11 0
-44 -80 -122 -299 -113 -318 -177 -431 -304 -540 -35 -30 -64 -59 -64 -65 -1
-27 102 -267 180 -421 255 -506 604 -864 1113 -1146 l99 -54 -7 -50 c-10 -87
-17 -115 -27 -115 -25 0 -245 123 -376 210 -384 256 -700 603 -910 1000 -186
350 -279 698 -252 936 34 307 174 539 370 615 30 12 117 32 193 45 153 25 259
58 357 108 36 19 68 34 72 35 3 1 9 -41 13 -91z m3686 -17 c41 -11 124 -27
186 -36 191 -27 262 -61 371 -180 208 -227 250 -602 114 -1020 -84 -256 -264
-587 -442 -810 -144 -180 -398 -420 -580 -546 -157 -110 -426 -257 -441 -242
-4 4 -11 44 -15 88 l-6 80 99 54 c269 149 427 265 619 456 188 187 313 351
439 574 78 139 225 478 225 520 0 10 -29 44 -65 76 -124 108 -201 248 -315
565 -33 94 -71 194 -84 223 l-24 52 -11 -29 c-18 -46 -29 -200 -20 -281 14
-129 65 -287 130 -402 16 -29 29 -55 29 -58 0 -8 -91 51 -152 100 -107 84
-197 219 -249 372 -51 152 -62 236 -60 465 l1 87 88 -44 c49 -24 122 -53 163
-64z m-2987 -988 c33 -25 80 -54 103 -65 25 -11 44 -27 48 -41 4 -12 25 -64
47 -115 22 -51 38 -95 35 -99 -8 -8 -137 71 -196 119 -92 76 -204 225 -275
367 -63 125 -59 125 60 1 64 -66 144 -141 178 -167z m2264 154 c-82 -163 -176
-285 -288 -372 -67 -51 -169 -110 -177 -101 -3 3 5 27 19 53 14 27 36 76 48
109 20 58 26 64 93 107 94 59 206 157 287 250 36 41 67 73 69 71 3 -2 -21 -55
-51 -117z m-2564 -162 c79 -122 84 -137 22 -72 -86 89 -186 248 -186 296 0 16
83 -97 164 -224z m2763 138 c-37 -72 -100 -162 -161 -228 -60 -64 -34 -14 82
159 109 163 140 190 79 69z m-3102 -5 c64 -151 150 -277 302 -439 190 -204
238 -389 231 -884 -2 -137 -7 -255 -11 -262 -5 -8 -28 0 -80 29 -362 204 -672
493 -869 810 -49 78 -179 338 -192 385 -6 18 -1 23 31 33 65 21 204 96 280
149 75 53 171 146 226 218 18 23 36 41 41 40 5 -2 24 -37 41 -79z m3404 17
c114 -141 285 -265 448 -327 46 -17 83 -35 83 -39 0 -16 -74 -179 -122 -269
-158 -295 -368 -536 -653 -751 -112 -84 -307 -206 -345 -216 -28 -7 -34 54
-34 332 0 179 4 268 17 350 37 234 72 312 210 465 51 56 120 139 155 184 64
82 172 282 172 317 0 31 14 22 69 -46z m-1809 17 c0 -79 -84 -165 -193 -197
-103 -30 -280 -15 -442 40 -83 28 -209 85 -202 92 3 2 35 -1 73 -8 202 -33
495 -1 679 76 77 31 85 31 85 -3z m208 -1 c213 -88 496 -114 721 -65 69 15 20
-15 -107 -64 -287 -113 -502 -114 -624 -4 -48 44 -68 80 -68 127 0 19 2 35 4
35 2 0 35 -13 74 -29z m-307 -281 c39 -21 49 -62 49 -200 l0 -131 -122 6
c-180 8 -207 13 -254 40 -67 39 -133 129 -148 201 l-7 31 88 12 c48 7 129 21
178 31 104 21 188 24 216 10z m525 -11 c60 -11 145 -26 189 -33 80 -12 80 -12
77 -40 -5 -45 -47 -120 -88 -156 -72 -63 -112 -74 -281 -78 l-153 -4 0 108 c0
128 11 176 47 204 33 25 70 25 209 -1z m-1219 -343 l60 -37 7 -117 c3 -64 9
-130 12 -147 l6 -30 -21 25 c-46 57 -231 395 -231 422 0 5 24 -11 54 -35 29
-24 80 -61 113 -81z m1804 -27 c-37 -74 -91 -170 -119 -214 l-52 -80 6 110 c8
177 5 168 87 221 40 26 87 60 106 76 18 16 35 28 37 25 2 -2 -27 -64 -65 -138z
m-1486 -80 c36 -26 127 -39 272 -39 l153 0 0 -161 0 -160 -97 6 c-171 10 -197
15 -250 45 -99 56 -172 179 -181 303 l-5 70 49 -28 c27 -16 54 -32 59 -36z
m1178 9 c-13 -165 -114 -304 -245 -341 -29 -9 -105 -17 -168 -19 l-115 -3 -3
115 c-2 63 0 134 3 158 l6 42 139 0 c169 0 218 10 301 60 35 21 69 39 75 39 7
1 10 -17 7 -51z m261 -379 c-36 -103 -124 -312 -130 -307 -1 2 2 67 8 145 l11
141 48 36 c26 19 56 47 66 60 33 46 33 27 -3 -75z m-1728 3 l41 -31 7 -118 c3
-65 9 -131 12 -148 4 -19 3 -26 -3 -20 -21 22 -163 369 -163 399 0 6 15 -4 33
-20 17 -17 50 -45 73 -62z m1454 -79 c0 -56 -27 -159 -56 -217 -33 -66 -117
-153 -173 -178 -33 -15 -74 -22 -169 -26 l-124 -5 3 166 c2 91 7 168 10 172 4
3 69 8 145 9 158 3 206 15 294 77 30 21 58 38 63 38 4 1 7 -16 7 -36z m-1190
-8 c97 -59 130 -67 298 -73 l152 -4 0 -102 c0 -55 3 -131 7 -168 l6 -68 -124
0 c-110 0 -130 3 -175 24 -83 38 -185 174 -212 281 -15 58 -25 145 -17 145 4
0 33 -16 65 -35z m-222 -590 c72 -159 144 -319 161 -354 17 -36 29 -67 27 -68
-10 -10 -349 87 -368 106 -3 3 0 51 8 106 7 55 17 196 20 313 4 118 11 208 15
200 4 -7 66 -143 137 -303z m1742 -198 c8 -63 9 -112 4 -117 -12 -12 -353
-114 -360 -108 -2 3 12 41 32 84 20 44 71 160 114 259 42 99 99 228 126 288
l49 107 11 -202 c7 -112 17 -252 24 -311z m-1400 236 c48 -24 70 -28 170 -30
63 -2 124 -6 136 -8 15 -3 35 -34 73 -115 28 -60 55 -110 61 -110 5 0 32 48
60 108 29 59 54 109 57 112 2 2 62 7 133 10 126 6 131 7 212 47 46 23 101 58
122 78 21 19 41 34 43 31 14 -13 -138 -409 -218 -568 -32 -64 -25 -61 -204
-78 -131 -12 -278 -12 -406 0 -181 17 -162 7 -219 120 -79 158 -200 470 -200
517 0 8 28 -9 63 -37 34 -28 87 -63 117 -77z"/>
<path d="M4377 6612 c-9 -9 -17 -40 -19 -67 l-3 -50 -58 -5 c-42 -4 -63 -11
-73 -25 -19 -25 -18 -38 4 -65 14 -18 32 -24 75 -28 l57 -4 0 -53 c0 -58 14
-77 56 -77 37 0 54 21 60 79 l6 51 50 5 c60 7 78 20 78 57 0 39 -28 60 -82 60
l-46 0 -4 56 c-3 40 -10 61 -23 70 -26 19 -59 17 -78 -4z"/>
<path d="M5836 6608 c-9 -13 -16 -43 -16 -70 l0 -48 -55 0 c-47 0 -57 -3 -71
-25 -9 -15 -13 -32 -9 -45 8 -25 60 -50 105 -50 29 0 30 -1 30 -48 0 -61 17
-85 60 -85 43 0 60 24 60 84 l0 47 54 4 c64 5 86 20 86 59 0 43 -24 59 -86 59
l-54 0 0 53 c0 40 -5 58 -18 70 -26 24 -68 21 -86 -5z"/>
<path d="M4932 6584 c-63 -32 -120 -93 -159 -172 -37 -75 -38 -78 -38 -191 0
-109 2 -120 30 -176 41 -83 128 -168 212 -208 63 -30 76 -32 168 -31 80 0 111
5 155 23 115 48 205 141 251 260 30 78 31 204 1 281 -29 74 -86 147 -152 192
-82 58 -90 54 -90 -39 0 -76 1 -79 33 -104 52 -42 82 -112 80 -189 -1 -86 -28
-145 -91 -201 -57 -52 -105 -69 -188 -69 -137 1 -249 104 -261 240 -8 85 11
145 64 197 l43 44 0 79 c0 88 -3 91 -58 64z"/>
<path d="M3306 4844 c-10 -10 -16 -33 -16 -65 l0 -49 -48 0 c-72 0 -101 -38
-66 -88 11 -16 25 -22 53 -22 48 0 61 -14 61 -66 0 -33 5 -47 22 -58 49 -34
88 -3 88 70 0 47 9 54 70 54 29 0 42 5 50 19 28 53 -3 91 -73 91 l-47 0 0 49
c0 55 -17 81 -55 81 -13 0 -31 -7 -39 -16z"/>
<path d="M6912 4848 c-7 -7 -12 -36 -12 -65 l0 -53 -50 0 c-51 0 -90 -23 -90
-53 0 -33 30 -55 85 -62 l55 -6 0 -48 c0 -52 20 -81 57 -81 32 0 53 32 53 82
l0 45 50 5 c61 6 80 21 80 64 0 41 -21 54 -84 54 l-46 0 0 53 c0 61 -11 77
-55 77 -17 0 -36 -5 -43 -12z"/>
<path d="M5770 2459 c-78 -13 -172 -62 -215 -111 -80 -94 -96 -224 -40 -327
48 -87 108 -122 300 -170 100 -26 125 -36 148 -61 64 -71 1 -150 -122 -150
-69 0 -168 34 -220 75 -24 19 -50 35 -57 35 -15 0 -114 -126 -114 -146 0 -39
174 -141 281 -164 77 -17 200 -8 271 19 75 29 150 97 184 169 23 46 28 71 28
132 0 64 -4 83 -28 128 -49 88 -117 126 -293 163 -119 24 -161 43 -180 84 -13
28 -14 36 -2 61 18 37 71 63 132 64 52 0 153 -30 203 -61 17 -10 36 -19 42
-19 6 0 33 31 61 70 l51 69 -33 31 c-39 37 -128 85 -182 98 -64 16 -155 21
-215 11z"/>
<path d="M7145 2456 c-82 -20 -146 -57 -211 -122 -102 -102 -144 -217 -145
-394 -1 -125 21 -206 79 -296 50 -77 109 -128 202 -173 74 -36 77 -36 200 -36
107 0 133 4 182 23 120 48 217 146 270 272 27 64 32 91 36 183 3 63 0 133 -8
170 -25 131 -113 259 -222 325 -94 56 -263 77 -383 48z m216 -211 c55 -20 116
-77 141 -134 45 -99 31 -281 -28 -371 -29 -44 -102 -85 -170 -96 -97 -15 -208
48 -255 144 -21 41 -24 62 -24 167 0 112 2 124 27 172 59 110 189 160 309 118z"/>
<path d="M1465 2448 c-3 -7 -4 -233 -3 -503 l3 -490 106 -3 106 -3 7 32 c3 17
6 105 6 195 0 149 2 164 18 165 9 0 91 1 182 2 l165 2 0 95 0 95 -182 3 -183
2 0 105 0 105 230 0 230 0 0 105 0 105 -340 0 c-263 0 -342 -3 -345 -12z"/>
<path d="M2320 2458 c-5 -50 -10 -950 -6 -973 l7 -35 97 0 c53 0 103 4 110 8
10 7 12 114 10 503 l-3 494 -107 3 c-60 1 -108 1 -108 0z"/>
<path d="M2680 2355 l0 -104 118 -3 117 -3 5 -395 5 -395 105 0 105 0 5 395 5
395 120 5 120 5 0 100 0 100 -352 3 -353 2 0 -105z"/>
<path d="M3545 2448 c-3 -7 -4 -233 -3 -503 l3 -490 105 0 105 0 3 192 2 193
178 2 177 3 0 95 0 95 -177 3 -178 2 0 105 0 105 230 0 231 0 -3 103 -3 102
-333 3 c-261 2 -334 0 -337 -10z"/>
<path d="M4380 2132 c0 -347 5 -393 50 -483 47 -92 149 -174 255 -204 43 -13
85 -16 164 -13 100 3 112 6 184 41 88 43 142 99 187 191 46 93 51 143 48 482
l-3 309 -107 3 -107 3 -3 -328 c-3 -310 -4 -331 -24 -374 -74 -160 -328 -152
-400 13 -17 39 -19 75 -21 353 -1 171 -2 316 -2 323 -1 9 -30 12 -111 12
l-110 0 0 -328z"/>
<path d="M6400 1961 c0 -446 2 -500 16 -505 29 -11 170 -6 187 6 16 12 17 51
15 503 l-3 490 -107 3 -108 3 0 -500z"/>
<path d="M7937 2453 c-4 -3 -7 -225 -7 -493 0 -365 3 -489 12 -498 13 -13 163
-17 192 -6 14 5 16 40 16 290 0 156 4 284 8 284 9 0 125 -162 295 -411 71
-105 114 -158 129 -163 30 -8 162 -8 182 0 14 5 16 59 16 505 l0 499 -110 0
-110 0 -2 -297 -3 -298 -28 40 c-16 22 -103 148 -194 280 -90 132 -172 248
-180 258 -13 14 -33 17 -113 17 -53 0 -100 -3 -103 -7z"/>
</g>
</svg>
